<svg width="20" height="18" viewBox="0 0 20 18" fill="none" xmlns="http://www.w3.org/2000/svg">
<path fill-rule="evenodd" clip-rule="evenodd" d="M7.778 18H12.222C15.343 18 16.904 18 18.025 17.265C18.5088 16.9482 18.9254 16.5391 19.251 16.061C20 14.961 20 13.428 20 10.364C20 7.30005 20 5.76705 19.251 4.66705C18.9254 4.18904 18.5088 3.77991 18.025 3.46305C17.305 2.99005 16.403 2.82105 15.022 2.76105C14.363 2.76105 13.796 2.27105 13.667 1.63605C13.5684 1.17092 13.3123 0.754083 12.9418 0.455997C12.5714 0.157912 12.1095 -0.00314481 11.634 4.65308e-05H8.366C7.378 4.65308e-05 6.527 0.685047 6.333 1.63605C6.204 2.27105 5.637 2.76105 4.978 2.76105C3.598 2.82105 2.696 2.99105 1.975 3.46305C1.49154 3.78001 1.07527 4.18914 0.75 4.66705C0 5.76705 0 7.29905 0 10.364C0 13.429 5.96046e-08 14.96 0.749 16.061C1.073 16.537 1.489 16.946 1.975 17.265C3.096 18 4.657 18 7.778 18ZM10 6.27305C7.699 6.27305 5.833 8.10405 5.833 10.363C5.833 12.622 7.7 14.456 10 14.456C12.3 14.456 14.167 12.624 14.167 10.365C14.167 8.10605 12.3 6.27305 10 6.27305ZM10 7.90905C8.62 7.90905 7.5 9.00805 7.5 10.364C7.5 11.719 8.62 12.818 10 12.818C11.38 12.818 12.5 11.719 12.5 10.364C12.5 9.00905 11.38 7.90905 10 7.90905ZM14.722 7.09105C14.722 6.63905 15.095 6.27305 15.556 6.27305H16.666C17.126 6.27305 17.5 6.63905 17.5 7.09105C17.4979 7.30994 17.409 7.51905 17.2528 7.67243C17.0966 7.82581 16.8859 7.91091 16.667 7.90905H15.556C15.4475 7.9101 15.3399 7.88978 15.2393 7.84924C15.1387 7.80871 15.047 7.74874 14.9696 7.67278C14.8921 7.59683 14.8304 7.50636 14.7879 7.40654C14.7454 7.30673 14.723 7.19952 14.722 7.09105Z" fill="url(#paint0_linear_3276_896)"/>
<defs>
<linearGradient id="paint0_linear_3276_896" x1="10" y1="0" x2="10" y2="18" gradientUnits="userSpaceOnUse">
<stop stop-color="#DD9200"/>
<stop offset="1" stop-color="#F9C900"/>
</linearGradient>
</defs>
</svg>
