<svg width="18" height="13" viewBox="0 0 18 13" fill="none" xmlns="http://www.w3.org/2000/svg">
<path d="M13.9697 0.602539C14.6438 -0.0715697 15.737 -0.0715695 16.4111 0.602539C17.0848 1.27655 17.0848 2.36893 16.4111 3.04297L7.9043 11.5498C7.58058 11.8735 7.1414 12.0557 6.68359 12.0557C6.22583 12.0556 5.78658 11.8735 5.46289 11.5498L0.602539 6.68945C-0.0715694 6.01534 -0.0715696 4.92215 0.602539 4.24805C1.2766 3.57407 2.36887 3.57412 3.04297 4.24805L6.61523 7.82031C6.63332 7.83831 6.65808 7.8486 6.68359 7.84863C6.7091 7.84863 6.73385 7.83826 6.75195 7.82031L13.9697 0.602539Z" fill="url(#paint0_linear_1714_43882)" fill-opacity="0.9" stroke="url(#paint1_linear_1714_43882)" stroke-width="0.193334" stroke-linecap="round" stroke-linejoin="round"/>
<defs>
<linearGradient id="paint0_linear_1714_43882" x1="2.65869" y1="4.63333" x2="29.2421" y2="7.775" gradientUnits="userSpaceOnUse">
<stop stop-color="#DADADA"/>
<stop offset="1" stop-opacity="0"/>
</linearGradient>
<linearGradient id="paint1_linear_1714_43882" x1="0.483688" y1="1.73332" x2="11.3587" y2="5.35833" gradientUnits="userSpaceOnUse">
<stop stop-color="white"/>
<stop offset="1" stop-color="white" stop-opacity="0"/>
</linearGradient>
</defs>
</svg>
