<svg width="12" height="11" viewBox="0 0 12 11" fill="none" xmlns="http://www.w3.org/2000/svg">
<path d="M3.60725 8.83333L5.70725 7.56667L7.80725 8.85L7.25725 6.45L9.10725 4.85L6.67392 4.63333L5.70725 2.36667L4.74058 4.61667L2.30725 4.83333L4.15725 6.45L3.60725 8.83333ZM5.70725 9.13333L2.94058 10.8C2.81836 10.8778 2.69058 10.9111 2.55725 10.9C2.42392 10.8889 2.30725 10.8444 2.20725 10.7667C2.10725 10.6889 2.02947 10.5918 1.97392 10.4753C1.91836 10.3589 1.90725 10.2282 1.94058 10.0833L2.67392 6.93333L0.223917 4.81667C0.112806 4.71667 0.0434728 4.60267 0.0159172 4.47467C-0.0116384 4.34667 -0.00341618 4.22178 0.0405838 4.1C0.0845838 3.97822 0.15125 3.87822 0.240584 3.8C0.329917 3.72178 0.452139 3.67178 0.60725 3.65L3.84058 3.36667L5.09058 0.4C5.14614 0.266667 5.23236 0.166667 5.34925 0.0999999C5.46614 0.0333332 5.58547 0 5.70725 0C5.82903 0 5.94836 0.0333332 6.06525 0.0999999C6.18214 0.166667 6.26836 0.266667 6.32392 0.4L7.57392 3.36667L10.8073 3.65C10.9628 3.67222 11.085 3.72222 11.1739 3.8C11.2628 3.87778 11.3295 3.97778 11.3739 4.1C11.4184 4.22222 11.4268 4.34733 11.3993 4.47533C11.3717 4.60333 11.3021 4.71711 11.1906 4.81667L8.74058 6.93333L9.47392 10.0833C9.50725 10.2278 9.49614 10.3584 9.44058 10.4753C9.38503 10.5922 9.30725 10.6893 9.20725 10.7667C9.10725 10.844 8.99058 10.8884 8.85725 10.9C8.72392 10.9116 8.59614 10.8782 8.47392 10.8L5.70725 9.13333Z" fill="black"/>
</svg>
