<svg width="170" height="31" viewBox="0 0 170 31" fill="none" xmlns="http://www.w3.org/2000/svg">
<path d="M10.4206 30.78C7.62063 30.78 5.31396 30.1533 3.50063 28.9C1.71396 27.62 0.820625 25.8333 0.820625 23.54C0.820625 23.3 0.847292 22.94 0.900625 22.46H6.62063C6.51396 23.58 6.80729 24.5 7.50063 25.22C8.22063 25.94 9.26063 26.3 10.6206 26.3C11.9806 26.3 13.0473 26.02 13.8206 25.46C14.6206 24.8733 15.0206 24.0467 15.0206 22.98C15.0206 21.9933 14.6073 21.2067 13.7806 20.62C12.9806 20.0333 11.714 19.38 9.98063 18.66C8.38063 17.9933 7.07396 17.38 6.06063 16.82C5.07396 16.26 4.22063 15.4867 3.50063 14.5C2.80729 13.4867 2.46063 12.22 2.46063 10.7C2.46063 8.96667 2.90063 7.46 3.78063 6.18C4.68729 4.9 5.91396 3.91333 7.46063 3.22C9.03396 2.52667 10.8206 2.18 12.8206 2.18C14.794 2.18 16.5006 2.51333 17.9406 3.18C19.4073 3.82 20.5006 4.74 21.2206 5.94C21.9673 7.14 22.2873 8.54 22.1806 10.14H16.2206L16.2606 9.7C16.2606 8.82 15.9273 8.1 15.2606 7.54C14.6206 6.98 13.714 6.7 12.5406 6.7C11.2873 6.7 10.274 6.99333 9.50063 7.58C8.72729 8.16667 8.34063 8.96667 8.34063 9.98C8.34063 10.6467 8.55396 11.2333 8.98063 11.74C9.43396 12.22 9.98063 12.6467 10.6206 13.02C11.2606 13.3667 12.1806 13.82 13.3806 14.38C14.954 15.0733 16.2473 15.7267 17.2606 16.34C18.274 16.9533 19.1406 17.7667 19.8606 18.78C20.5806 19.7933 20.9406 21.0333 20.9406 22.5C20.9406 24.1 20.5006 25.5267 19.6206 26.78C18.7673 28.0333 17.5406 29.02 15.9406 29.74C14.3673 30.4333 12.5273 30.78 10.4206 30.78ZM49.0747 8.34L45.1547 30.5H39.5547L40.0347 27.7C39.1814 28.66 38.128 29.42 36.8747 29.98C35.6214 30.5133 34.3014 30.78 32.9147 30.78C30.6214 30.78 28.808 30.1667 27.4747 28.94C26.1414 27.6867 25.4747 25.9133 25.4747 23.62C25.4747 22.7667 25.5414 22.0067 25.6747 21.34L27.9547 8.34H33.5547L31.3947 20.54C31.3147 21.02 31.2747 21.4867 31.2747 21.94C31.2747 23.2467 31.6347 24.26 32.3547 24.98C33.0747 25.6733 34.088 26.02 35.3947 26.02C36.9147 26.02 38.208 25.5533 39.2747 24.62C40.3414 23.66 41.0214 22.3 41.3147 20.54L43.4747 8.34H49.0747ZM66.92 8.02C69.2133 8.02 71.0133 8.64667 72.32 9.9C73.6533 11.1267 74.32 12.8867 74.32 15.18C74.32 16.0333 74.2533 16.8067 74.12 17.5L71.8 30.5H66.24L68.4 18.26C68.48 17.78 68.52 17.3133 68.52 16.86C68.52 15.5267 68.16 14.5133 67.44 13.82C66.7467 13.1267 65.7467 12.78 64.44 12.78C62.9467 12.78 61.6667 13.2333 60.6 14.14C59.56 15.02 58.8667 16.3 58.52 17.98L56.32 30.5H50.68L54.6 8.34H60.24L59.76 11.06C60.6667 10.1267 61.7467 9.39333 63 8.86C64.2533 8.3 65.56 8.02 66.92 8.02ZM77.6853 19.34C78.0853 17.1 78.872 15.1133 80.0453 13.38C81.2453 11.6467 82.6986 10.3133 84.4053 9.38C86.1386 8.44667 87.952 7.98 89.8453 7.98C91.2853 7.98 92.6053 8.3 93.8053 8.94C95.0053 9.55333 95.8986 10.38 96.4853 11.42L98.3653 0.9H104.005L98.7653 30.5H93.1253L93.7253 27.22C92.8453 28.3133 91.712 29.1933 90.3253 29.86C88.9653 30.5267 87.4586 30.86 85.8053 30.86C84.1786 30.86 82.7253 30.5 81.4453 29.78C80.192 29.0333 79.2053 27.9933 78.4853 26.66C77.792 25.3 77.4453 23.7267 77.4453 21.94C77.4453 21.1133 77.5253 20.2467 77.6853 19.34ZM95.0853 19.42C95.192 18.7267 95.2453 18.22 95.2453 17.9C95.2453 16.3267 94.7786 15.1 93.8453 14.22C92.9386 13.34 91.792 12.9 90.4053 12.9C89.3653 12.9 88.352 13.1533 87.3653 13.66C86.4053 14.1667 85.5653 14.9133 84.8453 15.9C84.1253 16.86 83.6453 18.0067 83.4053 19.34C83.3253 19.8467 83.2853 20.3267 83.2853 20.78C83.2853 22.38 83.7386 23.6467 84.6453 24.58C85.552 25.4867 86.6986 25.94 88.0853 25.94C89.1253 25.94 90.1386 25.6867 91.1253 25.18C92.112 24.6467 92.952 23.8867 93.6453 22.9C94.3653 21.9133 94.8453 20.7533 95.0853 19.42ZM104.795 19.34C105.195 17.1 105.981 15.1133 107.155 13.38C108.355 11.6467 109.808 10.3133 111.515 9.38C113.221 8.44667 115.021 7.98 116.915 7.98C118.568 7.98 119.955 8.31333 121.075 8.98C122.221 9.64667 123.061 10.4867 123.595 11.5L124.155 8.34H129.795L125.875 30.5H120.235L120.835 27.26C119.955 28.3 118.808 29.1667 117.395 29.86C116.008 30.5267 114.488 30.86 112.835 30.86C111.208 30.86 109.768 30.5 108.515 29.78C107.261 29.0333 106.288 27.9933 105.595 26.66C104.901 25.3 104.555 23.7267 104.555 21.94C104.555 21.1133 104.635 20.2467 104.795 19.34ZM122.195 19.42C122.301 18.7267 122.355 18.22 122.355 17.9C122.355 16.3267 121.888 15.1 120.955 14.22C120.048 13.34 118.901 12.9 117.515 12.9C116.475 12.9 115.461 13.1533 114.475 13.66C113.515 14.1667 112.675 14.9133 111.955 15.9C111.235 16.86 110.755 18.0067 110.515 19.34C110.435 19.8467 110.395 20.3267 110.395 20.78C110.395 22.38 110.848 23.6467 111.755 24.58C112.661 25.4867 113.808 25.94 115.195 25.94C116.235 25.94 117.248 25.6867 118.235 25.18C119.221 24.6467 120.061 23.8867 120.755 22.9C121.475 21.9133 121.955 20.7533 122.195 19.42ZM139.104 23.66C139.077 23.82 139.064 24.0333 139.064 24.3C139.064 24.8333 139.211 25.22 139.504 25.46C139.824 25.6733 140.344 25.78 141.064 25.78H143.704L142.864 30.5H139.304C135.304 30.5 133.304 28.8333 133.304 25.5C133.304 24.86 133.357 24.2333 133.464 23.62L135.344 12.94H132.704L133.504 8.34H136.184L137.144 2.86H142.784L141.824 8.34H146.744L145.944 12.94H140.984L139.104 23.66ZM160.532 7.98C163.359 7.98 165.599 8.76667 167.252 10.34C168.905 11.8867 169.732 13.98 169.732 16.62C169.732 17.4733 169.665 18.2333 169.532 18.9C169.372 19.7 169.199 20.3933 169.012 20.98H152.812C152.785 21.1667 152.772 21.4333 152.772 21.78C152.772 23.1667 153.172 24.26 153.972 25.06C154.799 25.8333 155.879 26.22 157.212 26.22C158.332 26.22 159.292 25.98 160.092 25.5C160.919 24.9933 161.585 24.34 162.092 23.54H168.132C167.145 25.6733 165.612 27.4333 163.532 28.82C161.479 30.18 159.145 30.86 156.532 30.86C153.705 30.86 151.439 30.06 149.732 28.46C148.025 26.86 147.172 24.6867 147.172 21.94C147.172 21.14 147.252 20.3 147.412 19.42C147.812 17.1267 148.625 15.1133 149.852 13.38C151.105 11.6467 152.652 10.3133 154.492 9.38C156.332 8.44667 158.345 7.98 160.532 7.98ZM163.972 17.58C164.025 17.1533 164.052 16.8467 164.052 16.66C164.052 15.38 163.639 14.38 162.812 13.66C161.985 12.94 160.905 12.58 159.572 12.58C158.159 12.58 156.892 13.0333 155.772 13.94C154.652 14.82 153.865 16.0333 153.412 17.58H163.972Z" fill="white"/>
</svg>
