<svg width="14" height="14" viewBox="0 0 14 14" fill="none" xmlns="http://www.w3.org/2000/svg">
<path d="M0.666016 6.66699H1.33268M6.66602 0.666992V1.33366M11.9993 6.66699H12.666M6.66602 12.0003V12.667M2.39935 2.40033L2.86602 2.86699M10.9327 2.40033L10.466 2.86699M10.466 10.467L10.9327 10.9337M2.86602 10.467L2.39935 10.9337M3.99935 6.66699C3.99935 7.37424 4.2803 8.05251 4.7804 8.55261C5.28049 9.05271 5.95877 9.33366 6.66602 9.33366C7.37326 9.33366 8.05154 9.05271 8.55163 8.55261C9.05173 8.05251 9.33268 7.37424 9.33268 6.66699C9.33268 5.95975 9.05173 5.28147 8.55163 4.78137C8.05154 4.28128 7.37326 4.00033 6.66602 4.00033C5.95877 4.00033 5.28049 4.28128 4.7804 4.78137C4.2803 5.28147 3.99935 5.95975 3.99935 6.66699Z" stroke="black" stroke-width="1.33333" stroke-linecap="round" stroke-linejoin="round"/>
</svg>
