<svg width="13" height="14" viewBox="0 0 13 14" fill="none" xmlns="http://www.w3.org/2000/svg">
<path d="M6.66457 0.672325H6.92657C6.07013 1.46813 5.51963 2.53889 5.37076 3.69847C5.22189 4.85806 5.48407 6.03315 6.11173 7.01948C6.73938 8.00581 7.69281 8.74102 8.8063 9.09731C9.91979 9.45359 11.1229 9.40843 12.2066 8.96966C11.7897 9.97265 11.1084 10.8437 10.2354 11.4898C9.36229 12.136 8.3302 12.533 7.24917 12.6386C6.16815 12.7442 5.07874 12.5543 4.09716 12.0893C3.11558 11.6242 2.27864 10.9015 1.67563 9.99806C1.07261 9.09466 0.726135 8.04451 0.673158 6.95964C0.620181 5.87476 0.862689 4.79586 1.37482 3.838C1.88694 2.88015 2.64948 2.07927 3.58108 1.52081C4.51268 0.962354 5.5784 0.667254 6.66457 0.666992V0.672325Z" stroke="black" stroke-width="1.33333" stroke-linecap="round" stroke-linejoin="round"/>
</svg>
