<svg width="13" height="14" viewBox="0 0 13 14" fill="none" xmlns="http://www.w3.org/2000/svg">
<path d="M1.58333 12.2708H3.95833V8.3125C3.95833 8.08819 4.03433 7.90031 4.18633 7.74883C4.33833 7.59736 4.52622 7.52136 4.75 7.52083H7.91667C8.14097 7.52083 8.32913 7.59683 8.48113 7.74883C8.63313 7.90083 8.70886 8.08872 8.70833 8.3125V12.2708H11.0833V5.14583L6.33333 1.58333L1.58333 5.14583V12.2708ZM0 12.2708V5.14583C0 4.89514 0.0562082 4.65764 0.168625 4.43333C0.281042 4.20903 0.435945 4.02431 0.633334 3.87917L5.38333 0.316667C5.66042 0.105556 5.97708 0 6.33333 0C6.68958 0 7.00625 0.105556 7.28333 0.316667L12.0333 3.87917C12.2313 4.02431 12.3864 4.20903 12.4988 4.43333C12.6113 4.65764 12.6672 4.89514 12.6667 5.14583V12.2708C12.6667 12.7063 12.5115 13.0791 12.2012 13.3895C11.8908 13.6998 11.5182 13.8547 11.0833 13.8542H7.91667C7.69236 13.8542 7.50447 13.7782 7.353 13.6262C7.20153 13.4742 7.12553 13.2863 7.125 13.0625V9.10417H5.54167V13.0625C5.54167 13.2868 5.46567 13.475 5.31367 13.627C5.16167 13.779 4.97378 13.8547 4.75 13.8542H1.58333C1.14792 13.8542 0.775305 13.6993 0.4655 13.3895C0.155694 13.0797 0.000527778 12.7068 0 12.2708Z" fill="white"/>
</svg>
