<svg width="17" height="17" viewBox="0 0 17 17" fill="none" xmlns="http://www.w3.org/2000/svg">
<path d="M7.91762 0.791748V2.37508M11.0843 8.70841C11.0843 7.86856 10.7507 7.06311 10.1568 6.46924C9.56292 5.87538 8.75747 5.54175 7.91762 5.54175M13.4593 3.16675L12.465 4.16108M14.251 8.70841H15.8343M10.1636 12.1799C9.96856 13.0025 9.55749 13.7582 8.97283 14.369C8.38816 14.9797 7.65109 15.4233 6.8377 15.654C6.02431 15.8847 5.16409 15.8941 4.34586 15.6812C3.52762 15.4684 2.78102 15.041 2.18314 14.4432C1.58527 13.8454 1.15778 13.0989 0.94482 12.2807C0.73186 11.4625 0.741146 10.6022 0.971718 9.78881C1.20229 8.97539 1.64579 8.23826 2.25643 7.65351C2.86708 7.06876 3.62273 6.65759 4.44537 6.46246C4.93937 6.34608 5.21328 6.98496 5.01141 7.45046C4.7594 8.03304 4.6883 8.67792 4.80731 9.30141C4.92633 9.92491 5.22998 10.4982 5.67886 10.947C6.12774 11.3958 6.70114 11.6994 7.32466 11.8183C7.94818 11.9372 8.59304 11.8659 9.17558 11.6138C9.64187 11.412 10.2807 11.6851 10.1636 12.1799Z" stroke="white" stroke-width="1.58333" stroke-linecap="round" stroke-linejoin="round"/>
</svg>
