<svg width="18" height="17" viewBox="0 0 18 17" fill="none" xmlns="http://www.w3.org/2000/svg">
<path d="M8.90625 6.53125C6.39904 6.53125 4.28054 8.7206 3.59654 11.5326C3.29571 12.7692 3.74933 14.0818 4.86281 14.6985C5.74552 15.1873 7.0585 15.6354 8.90625 15.6354C10.754 15.6354 12.0674 15.1873 12.9501 14.6985C14.0636 14.0818 14.5168 12.7692 14.216 11.5326C13.532 8.72021 11.4135 6.53125 8.90625 6.53125ZM0.59375 5.91533C0.59375 7.00863 1.30229 8.11458 2.17708 8.11458C3.05188 8.11458 3.76042 7.00863 3.76042 5.91533C3.76042 4.82204 3.05188 4.15625 2.17708 4.15625C1.30229 4.15625 0.59375 4.82244 0.59375 5.91533ZM17.2188 5.91533C17.2188 7.00863 16.5102 8.11458 15.6354 8.11458C14.7606 8.11458 14.0521 7.00863 14.0521 5.91533C14.0521 4.82204 14.7606 4.15625 15.6354 4.15625C16.5102 4.15625 17.2188 4.82244 17.2188 5.91533ZM4.75 2.35283C4.75 3.44613 5.45854 4.55208 6.33333 4.55208C7.20813 4.55208 7.91667 3.44613 7.91667 2.35283C7.91667 1.25954 7.20813 0.59375 6.33333 0.59375C5.45854 0.59375 4.75 1.25994 4.75 2.35283ZM13.0625 2.35283C13.0625 3.44613 12.354 4.55208 11.4792 4.55208C10.6044 4.55208 9.89583 3.44613 9.89583 2.35283C9.89583 1.25954 10.6044 0.59375 11.4792 0.59375C12.354 0.59375 13.0625 1.25994 13.0625 2.35283Z" stroke="white" stroke-width="1.1875" stroke-linecap="round" stroke-linejoin="round"/>
</svg>
