<svg width="14" height="17" viewBox="0 0 14 17" fill="none" xmlns="http://www.w3.org/2000/svg">
<path d="M4.94565 1.11928L4.09835 0H6.04048L4.94565 1.11928ZM7.62915 0L8.70424 1.09759L9.52325 0H7.62915ZM8.06267 1.32973L6.83501 0.0760445L5.60539 1.3313H8.06463L8.06267 1.32973ZM10.9262 1.32973L10.1061 0.253424L9.3037 1.3313H10.9282L10.9262 1.32973ZM3.52449 0.268005L2.73628 1.3321H4.33203L3.52449 0.268005ZM5.31216 1.95082L6.83501 6.13313L8.35904 1.95082H5.31098H5.31216ZM2.75993 1.95082L5.91278 5.40481L4.65166 1.95082H2.75993ZM10.9125 1.95082H9.02077L7.76233 5.40481L10.9125 1.95082ZM10.2338 3.63015L9.22016 4.74075C10.118 5.18568 10.8738 5.8724 11.4025 6.72361C11.9312 7.57481 12.2117 8.5567 12.2126 9.55873C12.2118 12.5232 9.79987 14.9367 6.83501 14.9367C3.87014 14.9367 1.45817 12.5248 1.45817 9.55988C1.45906 8.55785 1.73964 7.57596 2.26833 6.72475C2.79702 5.87355 3.55283 5.18683 4.45066 4.7419L3.437 3.6313C2.39336 4.22968 1.52604 5.09279 0.922581 6.1335C0.319124 7.17422 0.000890297 8.35571 2.97639e-10 9.55873C-3.48825e-05 13.3272 3.06609 16.3949 6.83501 16.3949C10.6039 16.3949 13.6701 13.3288 13.6701 9.55988C13.6695 8.35643 13.3514 7.17443 12.7479 6.13327C12.1443 5.09211 11.2767 4.22867 10.2326 3.63015H10.2338Z" fill="white"/>
</svg>
