<svg width="14" height="16" viewBox="0 0 14 16" fill="none" xmlns="http://www.w3.org/2000/svg">
<path d="M0.152792 1.36643C0.185379 0.992246 0.357509 0.644001 0.634995 0.390861C0.912481 0.137721 1.27503 -0.00179634 1.65062 1.74657e-05C2.00688 1.74657e-05 2.33621 0.123517 2.59508 0.330142C2.87219 0.116171 3.2124 7.66977e-05 3.5625 1.74657e-05C3.92667 1.74657e-05 4.26233 0.122726 4.52992 0.330142C4.79784 0.115557 5.13111 -0.000932366 5.47437 1.74657e-05C6.24704 1.74657e-05 6.90492 0.583476 6.97221 1.36643C7.03871 2.13831 7.125 3.33214 7.125 4.35418C7.12508 4.96808 6.96651 5.57157 6.66469 6.10615C6.36287 6.64072 5.92802 7.08823 5.40233 7.40527C5.22658 7.51135 5.18067 7.64277 5.18542 7.71085C5.28596 9.24193 5.54167 13.2145 5.54167 13.8518C5.54167 14.3767 5.33315 14.8801 4.96198 15.2513C4.59082 15.6225 4.08741 15.831 3.5625 15.831C3.03759 15.831 2.53418 15.6225 2.16302 15.2513C1.79185 14.8801 1.58333 14.3767 1.58333 13.8518C1.58333 13.2145 1.83904 9.24193 1.93958 7.71085C1.94354 7.64198 1.89842 7.51135 1.72267 7.40527C1.19698 7.08823 0.762135 6.64072 0.460311 6.10615C0.158487 5.57157 -7.59378e-05 4.96808 2.72825e-08 4.35418C2.72825e-08 3.33293 0.0862917 2.13831 0.152792 1.36643ZM5.14583 4.15627C5.14583 4.31374 5.08328 4.46476 4.97193 4.57611C4.86058 4.68746 4.70956 4.75002 4.55208 4.75002C4.39461 4.75002 4.24359 4.68746 4.13224 4.57611C4.02089 4.46476 3.95833 4.31374 3.95833 4.15627V1.58335C3.95833 1.47837 3.91663 1.37769 3.8424 1.30345C3.76816 1.22922 3.66748 1.18752 3.5625 1.18752C3.45752 1.18752 3.35684 1.22922 3.2826 1.30345C3.20837 1.37769 3.16667 1.47837 3.16667 1.58335V4.15627C3.16667 4.31374 3.10411 4.46476 2.99276 4.57611C2.88141 4.68746 2.73039 4.75002 2.57292 4.75002C2.41544 4.75002 2.26442 4.68746 2.15307 4.57611C2.04172 4.46476 1.97917 4.31374 1.97917 4.15627V1.51606C1.97917 1.42892 1.94455 1.34536 1.88294 1.28375C1.82133 1.22213 1.73776 1.18752 1.65062 1.18752C1.57239 1.18616 1.49651 1.21433 1.43812 1.26641C1.37972 1.3185 1.3431 1.39068 1.33554 1.46856C1.26983 2.23252 1.1875 3.38439 1.1875 4.35418C1.1875 5.2171 1.64667 5.97235 2.337 6.38877C2.76846 6.65002 3.16587 7.14877 3.12471 7.78843C3.02179 9.35593 2.77083 13.2652 2.77083 13.8526C2.77083 14.0626 2.85424 14.2639 3.00271 14.4124C3.15117 14.5609 3.35254 14.6443 3.5625 14.6443C3.77246 14.6443 3.97383 14.5609 4.12229 14.4124C4.27076 14.2639 4.35417 14.0626 4.35417 13.8526C4.35417 13.2652 4.10321 9.35593 4.00029 7.78843C3.95913 7.14877 4.35654 6.65002 4.788 6.38877C5.13873 6.17749 5.42889 5.87912 5.6303 5.52263C5.83171 5.16614 5.93753 4.76364 5.9375 4.35418C5.9375 3.38518 5.85517 2.23252 5.78946 1.46856C5.7819 1.39068 5.74528 1.3185 5.68688 1.26641C5.62849 1.21433 5.55261 1.18616 5.47437 1.18752C5.38724 1.18752 5.30367 1.22213 5.24206 1.28375C5.18045 1.34536 5.14583 1.42892 5.14583 1.51606V4.15627ZM7.91667 4.5521C7.91667 3.34481 8.39626 2.18697 9.24994 1.33329C10.1036 0.47961 11.2615 1.74657e-05 12.4687 1.74657e-05C12.6262 1.74657e-05 12.7772 0.062573 12.8886 0.173923C12.9999 0.285272 13.0625 0.436295 13.0625 0.593767V7.32293C13.0625 7.57468 13.1464 8.82314 13.2406 10.2062L13.2446 10.2719C13.3475 11.7824 13.4583 13.4251 13.4583 13.8518C13.4583 14.3767 13.2498 14.8801 12.8786 15.2513C12.5075 15.6225 12.0041 15.831 11.4792 15.831C10.9543 15.831 10.4508 15.6225 10.0797 15.2513C9.70852 14.8801 9.5 14.3767 9.5 13.8518C9.5 13.4449 9.60133 11.7848 9.6995 10.2624C9.74858 9.49368 9.79846 8.74873 9.83567 8.19614L9.85387 7.91668H9.30208C9.12015 7.91668 8.93999 7.88085 8.77191 7.81123C8.60382 7.7416 8.45109 7.63955 8.32244 7.51091C8.1938 7.38226 8.09175 7.22953 8.02213 7.06144C7.9525 6.89336 7.91667 6.7132 7.91667 6.53127V4.5521ZM11.0817 7.3641L11.0651 7.61268C11.0027 8.52139 10.9423 9.43022 10.8838 10.3392C10.7841 11.8909 10.6875 13.4948 10.6875 13.8518C10.6875 14.0618 10.7709 14.2631 10.9194 14.4116C11.0678 14.5601 11.2692 14.6435 11.4792 14.6435C11.6891 14.6435 11.8905 14.5601 12.039 14.4116C12.1874 14.2631 12.2708 14.0618 12.2708 13.8518C12.2708 13.4718 12.1616 11.8521 12.0555 10.2861L12.05 10.2038C11.9605 8.89043 11.875 7.62139 11.875 7.32293V1.23977C11.0979 1.37908 10.3946 1.78721 9.88805 2.39274C9.38152 2.99827 9.10404 3.76264 9.10417 4.5521V6.53127C9.10417 6.64052 9.19283 6.72918 9.30208 6.72918H10.4896C10.571 6.72921 10.6516 6.74598 10.7262 6.77845C10.8009 6.81093 10.8681 6.85841 10.9236 6.91796C10.9792 6.97751 11.0219 7.04784 11.0491 7.12459C11.0763 7.20134 11.0874 7.28287 11.0817 7.3641Z" fill="white"/>
</svg>
