<svg width="16" height="12" viewBox="0 0 16 12" fill="none" xmlns="http://www.w3.org/2000/svg">
<path d="M4.75 7.12508V10.2917M11.0833 0.791748V1.18758C11.0833 1.60751 11.2502 2.01023 11.5471 2.30717C11.844 2.6041 12.2467 2.77091 12.6667 2.77091C13.0866 2.77091 13.4893 2.93773 13.7863 3.23466C14.0832 3.5316 14.25 3.93432 14.25 4.35425V4.75008M0.791668 7.91675C0.791668 7.70679 0.875075 7.50542 1.02354 7.35696C1.17201 7.20849 1.37337 7.12508 1.58333 7.12508H14.25C14.46 7.12508 14.6613 7.20849 14.8098 7.35696C14.9583 7.50542 15.0417 7.70679 15.0417 7.91675V9.50008C15.0417 9.71004 14.9583 9.91141 14.8098 10.0599C14.6613 10.2083 14.46 10.2917 14.25 10.2917H1.58333C1.37337 10.2917 1.17201 10.2083 1.02354 10.0599C0.875075 9.91141 0.791668 9.71004 0.791668 9.50008V7.91675Z" stroke="white" stroke-width="1.58333" stroke-linecap="round" stroke-linejoin="round"/>
</svg>
