<svg width="13" height="17" viewBox="0 0 13 17" fill="none" xmlns="http://www.w3.org/2000/svg">
<path fill-rule="evenodd" clip-rule="evenodd" d="M0 2.2532C0 1.65562 0.237391 1.08251 0.659949 0.659949C1.08251 0.237391 1.65562 0 2.25321 0H9.76389C10.3615 0 10.9346 0.237391 11.3571 0.659949C11.7797 1.08251 12.0171 1.65562 12.0171 2.2532V14.2703C12.017 14.4118 11.977 14.5503 11.9016 14.67C11.8262 14.7897 11.7186 14.8857 11.591 14.9469C11.4635 15.0081 11.3213 15.0321 11.1807 15.016C11.0402 15 10.907 14.9445 10.7966 14.8561L9.38836 13.7295L7.9801 14.8561C7.83583 14.9717 7.654 15.03 7.46941 15.0199C7.28483 15.0098 7.11046 14.932 6.97968 14.8013L6.00855 13.8302L5.03742 14.8013C4.90673 14.9321 4.73241 15.01 4.54783 15.0203C4.36324 15.0305 4.18136 14.9724 4.03699 14.8569L2.62874 13.7295L1.22049 14.8561C1.11006 14.9445 0.976906 15 0.83636 15.016C0.695814 15.0321 0.553588 15.0081 0.426058 14.9469C0.298527 14.8857 0.190877 14.7897 0.115501 14.67C0.0401252 14.5503 8.83558e-05 14.4118 0 14.2703V2.2532ZM2.25321 1.50214C2.05401 1.50214 1.86297 1.58127 1.72212 1.72212C1.58127 1.86297 1.50214 2.05401 1.50214 2.2532V12.7081L2.15932 12.1823C2.29253 12.0757 2.45809 12.0176 2.62874 12.0176C2.79939 12.0176 2.96495 12.0757 3.09816 12.1823L4.45008 13.2639L5.47754 12.2372C5.61839 12.0964 5.80939 12.0173 6.00855 12.0173C6.2077 12.0173 6.39871 12.0964 6.53955 12.2372L7.56626 13.2639L8.91894 12.1823C9.05215 12.0757 9.21771 12.0176 9.38836 12.0176C9.559 12.0176 9.72456 12.0757 9.85777 12.1823L10.515 12.7081V2.2532C10.515 2.05401 10.4358 1.86297 10.295 1.72212C10.1541 1.58127 9.96309 1.50214 9.76389 1.50214H2.25321ZM3.00427 5.25748C3.00427 5.05828 3.0834 4.86725 3.22426 4.72639C3.36511 4.58554 3.55615 4.50641 3.75534 4.50641H8.26175C8.46095 4.50641 8.65199 4.58554 8.79284 4.72639C8.93369 4.86725 9.01282 5.05828 9.01282 5.25748C9.01282 5.45667 8.93369 5.64771 8.79284 5.78856C8.65199 5.92942 8.46095 6.00855 8.26175 6.00855H3.75534C3.55615 6.00855 3.36511 5.92942 3.22426 5.78856C3.0834 5.64771 3.00427 5.45667 3.00427 5.25748ZM3.75534 7.51068C3.55615 7.51068 3.36511 7.58981 3.22426 7.73067C3.0834 7.87152 3.00427 8.06256 3.00427 8.26175C3.00427 8.46095 3.0834 8.65198 3.22426 8.79284C3.36511 8.93369 3.55615 9.01282 3.75534 9.01282H6.00855C6.20774 9.01282 6.39878 8.93369 6.53963 8.79284C6.68049 8.65198 6.75962 8.46095 6.75962 8.26175C6.75962 8.06256 6.68049 7.87152 6.53963 7.73067C6.39878 7.58981 6.20774 7.51068 6.00855 7.51068H3.75534Z" fill="white"/>
</svg>
