<svg width="18" height="13" viewBox="0 0 18 13" fill="none" xmlns="http://www.w3.org/2000/svg">
<path fill-rule="evenodd" clip-rule="evenodd" d="M6.72135 9.20437C6.73427 9.28131 6.73191 9.36003 6.71439 9.43606C6.69687 9.51208 6.66455 9.5839 6.61926 9.64743C6.57397 9.71095 6.5166 9.76493 6.45044 9.80627C6.38428 9.84761 6.31063 9.87551 6.23368 9.88837C4.3341 10.2073 2.52412 10.9267 0.923971 11.999C0.793059 12.0865 0.632728 12.1185 0.478249 12.0878C0.32377 12.0572 0.187796 11.9664 0.100242 11.8355C0.0126873 11.7046 -0.0192767 11.5442 0.0113815 11.3898C0.0420398 11.2353 0.132809 11.0993 0.263721 11.0117C2.00369 9.84588 3.97181 9.06354 6.03735 8.7167C6.11428 8.70378 6.19301 8.70614 6.26903 8.72366C6.34506 8.74117 6.41688 8.7735 6.4804 8.81879C6.54393 8.86408 6.5979 8.92144 6.63924 8.9876C6.68059 9.05376 6.70849 9.12742 6.72135 9.20437ZM10.2997 9.20437C10.3125 9.12742 10.3404 9.05376 10.3818 8.9876C10.4231 8.92144 10.4771 8.86408 10.5406 8.81879C10.6041 8.7735 10.676 8.74117 10.752 8.72366C10.828 8.70614 10.9067 8.70378 10.9837 8.7167C13.0492 9.06354 15.0173 9.84588 16.7573 11.0117C16.8882 11.0993 16.979 11.2353 17.0096 11.3898C17.0403 11.5442 17.0083 11.7046 16.9208 11.8355C16.8332 11.9664 16.6973 12.0572 16.5428 12.0878C16.3883 12.1185 16.228 12.0865 16.0971 11.999C14.4969 10.9267 12.6869 10.2073 10.7873 9.88837C10.7104 9.87551 10.6367 9.84761 10.5706 9.80627C10.5044 9.76493 10.4471 9.71095 10.4018 9.64743C10.3565 9.5839 10.3242 9.51208 10.3066 9.43606C10.2891 9.36003 10.2868 9.28131 10.2997 9.20437Z" fill="white"/>
<path fill-rule="evenodd" clip-rule="evenodd" d="M3.95835 4.55208C3.95835 3.3448 4.43795 2.18696 5.29163 1.33327C6.14531 0.479593 7.30315 0 8.51044 0C9.71773 0 10.8756 0.479593 11.7292 1.33327C12.5829 2.18696 13.0625 3.3448 13.0625 4.55208C13.0625 6.72283 11.9827 8.63154 10.9606 9.96075C10.3955 10.692 9.76285 11.3684 9.07094 11.9811C9.01359 12.0307 8.95553 12.0796 8.89677 12.1275L8.88648 12.137L8.88331 12.1394H8.88173C8.88173 12.1402 8.88173 12.141 8.51044 11.6771L8.17002 12.1632L8.16765 12.1616L8.16448 12.1592L8.15261 12.1513L8.11381 12.1228L7.97527 12.0183C7.81245 11.8906 7.65352 11.7581 7.49869 11.6209C6.97974 11.1616 6.50089 10.6589 6.06735 10.1183C5.03027 8.82233 3.95835 6.91363 3.95835 4.55208ZM8.51044 11.6771L8.17002 12.1632C8.2751 12.2369 8.40126 12.2746 8.52957 12.2706C8.65788 12.2666 8.78144 12.2211 8.88173 12.141L8.51044 11.6771ZM8.48985 10.9068C8.55847 10.8445 8.63394 10.7733 8.71627 10.693C9.18536 10.2397 9.62087 9.75287 10.0194 9.23637C10.9757 7.99346 11.875 6.33967 11.875 4.55208C11.875 3.65974 11.5205 2.80395 10.8896 2.17296C10.2586 1.54198 9.40278 1.1875 8.51044 1.1875C7.6181 1.1875 6.7623 1.54198 6.13132 2.17296C5.50034 2.80395 5.14585 3.65974 5.14585 4.55208C5.14585 6.54471 6.05231 8.1985 6.99519 9.3765C7.44291 9.9336 7.94346 10.4461 8.48985 10.9068ZM8.51044 3.5625C8.24798 3.5625 7.99628 3.66676 7.8107 3.85234C7.62511 4.03793 7.52085 4.28963 7.52085 4.55208C7.52085 4.81454 7.62511 5.06624 7.8107 5.25182C7.99628 5.43741 8.24798 5.54167 8.51044 5.54167C8.77289 5.54167 9.0246 5.43741 9.21018 5.25182C9.39576 5.06624 9.50002 4.81454 9.50002 4.55208C9.50002 4.28963 9.39576 4.03793 9.21018 3.85234C9.0246 3.66676 8.77289 3.5625 8.51044 3.5625ZM6.33335 4.55208C6.33335 3.97468 6.56273 3.42094 6.97101 3.01265C7.37929 2.60437 7.93304 2.375 8.51044 2.375C9.08784 2.375 9.64159 2.60437 10.0499 3.01265C10.4582 3.42094 10.6875 3.97468 10.6875 4.55208C10.6875 5.12948 10.4582 5.68323 10.0499 6.09151C9.64159 6.4998 9.08784 6.72917 8.51044 6.72917C7.93304 6.72917 7.37929 6.4998 6.97101 6.09151C6.56273 5.68323 6.33335 5.12948 6.33335 4.55208Z" fill="white"/>
</svg>
