<svg width="10" height="16" viewBox="0 0 10 16" fill="none" xmlns="http://www.w3.org/2000/svg">
<path d="M7.86046 6.13858C7.88582 5.98568 7.85039 5.82892 7.76173 5.70179C7.67307 5.57466 7.53822 5.48724 7.38597 5.45819C7.23373 5.42915 7.07616 5.46079 6.94693 5.54635C6.81769 5.63192 6.72704 5.76462 6.69433 5.91612C6.61441 6.33619 6.39954 6.71867 6.08238 7.00546C5.82158 7.2429 5.50207 7.40635 5.15692 7.47887C5.08056 7.49483 5.00809 7.52568 4.94364 7.56964C4.8792 7.61361 4.82405 7.66983 4.78134 7.73511C4.73863 7.80039 4.7092 7.87345 4.69472 7.9501C4.68024 8.02676 4.681 8.10551 4.69696 8.18187C4.71292 8.25824 4.74376 8.33071 4.78772 8.39515C4.83169 8.45959 4.88792 8.51474 4.9532 8.55745C5.01848 8.60016 5.09153 8.6296 5.16819 8.64407C5.24484 8.65855 5.3236 8.65779 5.39996 8.64183C5.95276 8.52573 6.46444 8.26388 6.88196 7.88342C7.38809 7.42282 7.7314 6.81065 7.86046 6.13858ZM8.68843e-08 0.59375C8.68843e-08 0.436278 0.0625556 0.285255 0.173905 0.173905C0.285255 0.0625555 0.436278 0 0.59375 0H8.90625C9.06372 0 9.21475 0.0625555 9.3261 0.173905C9.43744 0.285255 9.5 0.436278 9.5 0.59375V5.73958C9.50023 6.94919 9.05735 8.11698 8.25507 9.02224C7.45279 9.9275 6.3467 10.5075 5.14583 10.6527V14.653L7.32133 14.6458C7.47881 14.6454 7.62999 14.7076 7.74164 14.8186C7.85329 14.9297 7.91625 15.0805 7.91667 15.238C7.91709 15.3955 7.85493 15.5467 7.74388 15.6583C7.63283 15.77 7.48197 15.8329 7.3245 15.8333L4.55367 15.842H4.54971L2.17471 15.8333C2.01724 15.8327 1.86646 15.7695 1.75556 15.6577C1.64465 15.546 1.5827 15.3947 1.58333 15.2372C1.58396 15.0797 1.64712 14.929 1.75892 14.8181C1.87071 14.7072 2.02199 14.6452 2.17946 14.6458L3.95833 14.6522V10.6495C2.86317 10.5054 1.85776 9.96804 1.12949 9.13753C0.401222 8.30701 -0.000215619 7.24001 8.68843e-08 6.13542V0.59375ZM1.1875 1.1875V3.36458H8.3125V1.1875H1.1875ZM1.1875 6.13542C1.1875 7.02776 1.54198 7.88355 2.17296 8.51454C2.80395 9.14552 3.65974 9.5 4.55208 9.5C5.54941 9.5 6.50588 9.10381 7.2111 8.3986C7.91631 7.69338 8.3125 6.73691 8.3125 5.73958V4.55208H1.1875V6.13542Z" fill="white"/>
</svg>
