<svg width="18" height="18" viewBox="0 0 18 18" fill="none" xmlns="http://www.w3.org/2000/svg">
<path fill-rule="evenodd" clip-rule="evenodd" d="M8.75 0C9.338 0 9.83062 0.385 10.1491 0.704375C10.5114 1.0675 10.8605 1.56012 11.1641 2.13063C11.5561 2.87 11.8956 3.78437 12.0864 4.80638C12.6149 4.53102 13.1717 4.31391 13.7471 4.15888C14.1785 4.046 14.5985 3.98387 14.9713 3.99262C15.295 4.0005 15.7885 4.06437 16.1438 4.41962C16.5121 4.788 16.5918 5.33575 16.5664 5.8345C16.5419 6.2965 16.4237 6.83025 16.2295 7.38238C15.9876 8.05783 15.6681 8.70294 15.2775 9.30475C15.6519 9.44566 16.0122 9.62143 16.3538 9.82975C16.8962 10.1675 17.5 10.6776 17.5 11.375C17.5 11.6856 17.3749 11.9368 17.2646 12.1012C16.905 12.6438 16.2855 12.9981 15.7098 13.2633C14.8103 13.6771 13.5922 14 12.25 14C10.8938 14 9.66 13.671 8.75 13.2449C7.84 13.671 6.60625 14 5.25 14C3.90775 14 2.68975 13.6771 1.79025 13.2633C1.2145 12.9981 0.595 12.6437 0.235375 12.1021C0.0865236 11.8885 0.00459092 11.6354 0 11.375C0 10.6776 0.60375 10.1675 1.14625 9.83062C1.48774 9.62201 1.84807 9.44594 2.2225 9.30475C1.83188 8.70294 1.51241 8.05783 1.2705 7.38238C1.07625 6.83025 0.958125 6.29738 0.933625 5.8345C0.907375 5.33575 0.987 4.788 1.35625 4.41962C1.7115 4.06437 2.205 3.99962 2.52875 3.99262C2.9015 3.98387 3.3215 4.046 3.75288 4.15888C4.32828 4.31391 4.88513 4.53102 5.41363 4.80638C5.58526 3.87317 5.89645 2.97114 6.33675 2.13063C6.6395 1.56012 6.98863 1.0675 7.35175 0.704375C7.66938 0.385 8.16113 0 8.75 0ZM14.1269 10.7634C13.5839 11.3297 12.975 11.8289 12.313 12.25C13.3612 12.2395 14.3063 11.9831 14.9774 11.6742C15.2005 11.571 15.3816 11.4686 15.5199 11.375C15.0999 11.0915 14.6125 10.9025 14.1269 10.7634ZM3.37313 10.7634C2.8875 10.9034 2.401 11.0915 1.98012 11.375C2.11838 11.4686 2.2995 11.571 2.52262 11.6742C3.19375 11.9831 4.13875 12.2395 5.187 12.25C4.525 11.8286 3.91601 11.3292 3.37313 10.7625V10.7634ZM8.91012 1.93988C8.76137 1.79113 8.73863 1.79113 8.58988 1.93988C8.37813 2.1525 8.12613 2.49288 7.882 2.95138C7.30405 4.06745 7.00162 5.30566 7 6.5625C7.00162 7.81934 7.30405 9.05755 7.882 10.1736C8.12613 10.6321 8.379 10.9734 8.59075 11.1851C8.73862 11.3339 8.76137 11.3339 8.91012 11.1851C9.12187 10.9734 9.37387 10.6321 9.618 10.1736C10.196 9.05755 10.4984 7.81934 10.5 6.5625C10.4984 5.30566 10.196 4.06745 9.618 2.95138C9.37387 2.49288 9.12187 2.1525 8.91012 1.93988ZM2.68187 5.74437C2.695 5.99637 2.76587 6.36037 2.92075 6.80137C3.2305 7.68162 3.83338 8.75262 4.75913 9.67838C5.21282 10.131 5.71894 10.5279 6.26675 10.8605C5.62457 9.57647 5.27777 8.16505 5.25175 6.72962C4.55175 6.28337 3.864 5.99637 3.31012 5.852C3.10476 5.79555 2.89432 5.7595 2.68187 5.74437ZM14.8181 5.74437C14.6606 5.75312 14.4489 5.78462 14.1899 5.852C13.636 5.99637 12.9482 6.28337 12.2483 6.72962C12.2221 8.16475 11.8753 9.57586 11.2333 10.8596C11.781 10.5273 12.2871 10.1307 12.7409 9.67838C13.6666 8.75262 14.2695 7.68162 14.5784 6.80137C14.7341 6.36037 14.805 5.99637 14.8181 5.74437Z" fill="white"/>
</svg>
