<svg width="15" height="14" viewBox="0 0 15 14" fill="none" xmlns="http://www.w3.org/2000/svg">
<path fill-rule="evenodd" clip-rule="evenodd" d="M11.0833 2.375C11.0833 1.74511 10.8331 1.14102 10.3877 0.695621C9.94231 0.250223 9.33822 0 8.70833 0H5.54167C4.91178 0 4.30769 0.250223 3.86229 0.695621C3.41689 1.14102 3.16667 1.74511 3.16667 2.375H2.375C1.74511 2.375 1.14102 2.62522 0.695621 3.07062C0.250223 3.51602 0 4.12011 0 4.75V11.0833C0 11.7132 0.250223 12.3173 0.695621 12.7627C1.14102 13.2081 1.74511 13.4583 2.375 13.4583H11.875C12.5049 13.4583 13.109 13.2081 13.5544 12.7627C13.9998 12.3173 14.25 11.7132 14.25 11.0833V4.75C14.25 4.12011 13.9998 3.51602 13.5544 3.07062C13.109 2.62522 12.5049 2.375 11.875 2.375H11.0833ZM8.70833 1.58333H5.54167C5.3317 1.58333 5.13034 1.66674 4.98187 1.81521C4.83341 1.96367 4.75 2.16504 4.75 2.375H9.5C9.5 2.16504 9.41659 1.96367 9.26813 1.81521C9.11966 1.66674 8.9183 1.58333 8.70833 1.58333ZM2.375 3.95833H11.875C12.085 3.95833 12.2863 4.04174 12.4348 4.19021C12.5833 4.33867 12.6667 4.54004 12.6667 4.75V11.0833C12.6667 11.2933 12.5833 11.4947 12.4348 11.6431C12.2863 11.7916 12.085 11.875 11.875 11.875H2.375C2.16504 11.875 1.96367 11.7916 1.81521 11.6431C1.66674 11.4947 1.58333 11.2933 1.58333 11.0833V4.75C1.58333 4.54004 1.66674 4.33867 1.81521 4.19021C1.96367 4.04174 2.16504 3.95833 2.375 3.95833Z" fill="white"/>
</svg>
