<svg width="16" height="17" viewBox="0 0 16 17" fill="none" xmlns="http://www.w3.org/2000/svg">
<path d="M8.27599 1.50214C11.1901 1.50214 13.5335 3.86049 13.5335 6.75961C13.5335 8.86261 12.3092 10.6577 10.5292 11.4989V15.0214H5.27172V12.7682H4.52065C3.68697 12.7682 3.01851 12.0997 3.01851 11.266V9.01282H1.89191C1.57646 9.01282 1.39621 8.63729 1.57646 8.40445L3.01851 6.50425C3.08469 5.1548 3.66761 3.88257 4.64644 2.95128C5.62526 2.02 6.92492 1.50109 8.27599 1.50214ZM8.27599 0C4.82859 0 1.97453 2.56865 1.56144 5.93344L0.389775 7.51068H0.367243L0.352222 7.53322C-0.0608658 8.10403 -0.113441 8.8551 0.209519 9.47848C0.479903 9.99672 0.960587 10.3572 1.51638 10.4699V11.266C1.51638 12.6555 2.47775 13.8347 3.76958 14.1727V16.5235H12.0313V12.3926C13.909 11.1383 15.0356 9.05788 15.0356 6.75961C15.0356 3.02681 12.0013 0 8.27599 0ZM11.2803 5.88087C11.2803 7.03751 10.2588 7.96132 8.71161 9.36582L8.27599 9.76389L7.84037 9.36582C6.29317 7.96132 5.27172 7.03751 5.27172 5.88087C5.27172 4.97958 5.99274 4.23603 6.89403 4.22852H6.92407C7.44231 4.22852 7.93801 4.46135 8.27599 4.8519C8.61397 4.46135 9.10968 4.22852 9.62792 4.22852C10.5292 4.221 11.2803 4.94954 11.2803 5.85082V5.88087Z" fill="white"/>
</svg>
