<svg width="15" height="16" viewBox="0 0 15 16" fill="none" xmlns="http://www.w3.org/2000/svg">
<path d="M9.12036 10.9781L11.8861 11.8102C12.3847 11.9619 12.8358 12.2397 13.1957 12.6168C13.5555 12.9939 13.812 13.4574 13.9403 13.9626C14.0415 14.3615 13.6969 14.6994 13.2838 14.6994H1.23552C0.822444 14.6994 0.477845 14.3615 0.579066 13.9626C0.707354 13.4574 0.963828 12.9939 1.32369 12.6168C1.68354 12.2397 2.13461 11.9619 2.63326 11.8102L5.39899 10.9781V9.53567C4.07418 8.4989 3.16617 7.2567 3.16617 4.58996C3.16617 1.91802 4.62122 0.558228 6.88158 0.558228C8.48252 0.558228 9.14939 1.3025 9.14939 1.3025C11.0384 1.3025 11.3532 2.86325 11.3532 4.58996C11.3532 7.2567 10.4452 8.4989 9.12036 9.53567V10.9781Z" stroke="white" stroke-width="1.11641" stroke-linejoin="round"/>
</svg>
