<svg width="18" height="16" viewBox="0 0 18 16" fill="none" xmlns="http://www.w3.org/2000/svg">
<path d="M7.06771 11.0832C7.46354 11.3207 8.01771 11.479 8.65104 11.479C9.28438 11.479 9.83854 11.3207 10.2344 11.0832M11.026 7.9165H11.034" stroke="white" stroke-width="1.58333" stroke-linecap="round" stroke-linejoin="round"/>
<path d="M14.494 3.81013C15.0491 4.61715 15.4317 5.52994 15.6182 6.4915C15.8859 6.62115 16.1116 6.82359 16.2696 7.07561C16.4276 7.32764 16.5114 7.61906 16.5114 7.9165C16.5114 8.21394 16.4276 8.50537 16.2696 8.75739C16.1116 9.00942 15.8859 9.21185 15.6182 9.3415C15.2764 10.9355 14.3983 12.3641 13.1305 13.3889C11.8627 14.4137 10.2817 14.9728 8.65151 14.9728C7.02128 14.9728 5.44034 14.4137 4.17251 13.3889C2.90467 12.3641 2.02661 10.9355 1.68484 9.3415C1.41715 9.21185 1.19138 9.00942 1.03342 8.75739C0.87545 8.50537 0.791668 8.21394 0.791668 7.9165C0.791668 7.61906 0.87545 7.32764 1.03342 7.07561C1.19138 6.82359 1.41715 6.62115 1.68484 6.4915C2.0128 4.88482 2.88493 3.44044 4.15407 2.40204C5.42322 1.36365 7.0117 0.794814 8.65151 0.791504C10.2348 0.791504 11.4223 1.66234 11.4223 2.77067C11.4223 3.879 10.7098 4.74984 9.83901 4.74984C9.20568 4.74984 8.65151 4.43317 8.65151 3.95817M6.27651 7.9165H6.28443" stroke="white" stroke-width="1.58333" stroke-linecap="round" stroke-linejoin="round"/>
</svg>
