<svg width="13" height="21" viewBox="0 0 13 21" fill="none" xmlns="http://www.w3.org/2000/svg">
<path d="M10.6868 0L12.7903 2.1035C12.8814 2.1978 12.9318 2.3241 12.9306 2.4552C12.9295 2.5863 12.8769 2.71171 12.7842 2.80441C12.6915 2.89711 12.5661 2.9497 12.435 2.95084C12.3039 2.95198 12.1776 2.90158 12.0833 2.8105L11.1868 1.914V20.207H10.1868V1.914L9.29028 2.8105C9.24415 2.85825 9.18898 2.89635 9.12798 2.92255C9.06698 2.94876 9.00137 2.96255 8.93498 2.96313C8.86859 2.9637 8.80275 2.95105 8.7413 2.92591C8.67985 2.90077 8.62403 2.86364 8.57708 2.8167C8.53013 2.76975 8.49301 2.71393 8.46787 2.65248C8.44273 2.59103 8.43008 2.52519 8.43065 2.4588C8.43123 2.39241 8.44502 2.3268 8.47123 2.2658C8.49743 2.2048 8.53552 2.14962 8.58328 2.1035L10.6868 0Z" fill="white"/>
<path fill-rule="evenodd" clip-rule="evenodd" d="M6.93678 2.70703C6.93678 3.37007 6.67338 4.00596 6.20454 4.4748C5.7357 4.94364 5.09982 5.20703 4.43678 5.20703C3.77374 5.20703 3.13785 4.94364 2.66901 4.4748C2.20017 4.00596 1.93678 3.37007 1.93678 2.70703C1.93678 2.04399 2.20017 1.40811 2.66901 0.939264C3.13785 0.470423 3.77374 0.207031 4.43678 0.207031C5.09982 0.207031 5.7357 0.470423 6.20454 0.939264C6.67338 1.40811 6.93678 2.04399 6.93678 2.70703ZM5.93678 2.70703C5.93678 3.10486 5.77874 3.48639 5.49744 3.76769C5.21613 4.049 4.8346 4.20703 4.43678 4.20703C4.03895 4.20703 3.65742 4.049 3.37612 3.76769C3.09481 3.48639 2.93678 3.10486 2.93678 2.70703C2.93678 2.30921 3.09481 1.92768 3.37612 1.64637C3.65742 1.36507 4.03895 1.20703 4.43678 1.20703C4.8346 1.20703 5.21613 1.36507 5.49744 1.64637C5.77874 1.92768 5.93678 2.30921 5.93678 2.70703ZM6.39328 20.207C6.01889 20.2071 5.65802 20.0671 5.38157 19.8146C5.10513 19.5621 4.9331 19.2154 4.89928 18.8425L4.52328 14.707H4.34978L3.97378 18.8425C3.96578 18.9323 3.94972 19.0212 3.92578 19.108C3.83808 19.4241 3.64918 19.7028 3.38802 19.9013C3.12685 20.0998 2.80781 20.2072 2.47978 20.207H2.43678C2.03895 20.207 1.65742 20.049 1.37612 19.7677C1.09481 19.4864 0.936776 19.1049 0.936776 18.707V14.3105C0.694548 14.13 0.496369 13.8969 0.35712 13.6288C0.217871 13.3607 0.14117 13.0645 0.132776 12.7625L0.000776479 8.00403C-0.007191 7.71817 0.0462356 7.43393 0.157453 7.17048C0.26867 6.90702 0.435091 6.67048 0.645492 6.47681C0.855892 6.28314 1.10538 6.13684 1.37713 6.04777C1.64887 5.95871 1.93656 5.92896 2.22078 5.96053L4.21578 6.18253C4.36311 6.19853 4.51044 6.19853 4.65778 6.18253L6.58778 5.96753C6.87668 5.9354 7.16911 5.96662 7.44471 6.05904C7.72031 6.15145 7.97245 6.30283 8.18358 6.50263C8.39471 6.70243 8.55975 6.94585 8.6672 7.21594C8.77466 7.48603 8.82195 7.7763 8.80578 8.06653L8.54178 12.818C8.51383 13.32 8.29782 13.7931 7.93678 14.143V18.707C7.93678 19.1049 7.77874 19.4864 7.49744 19.7677C7.21613 20.049 6.8346 20.207 6.43678 20.207H6.39328ZM1.93678 14.3105C1.93678 14.1549 1.90044 14.0013 1.83064 13.8622C1.76085 13.7231 1.65954 13.6021 1.53478 13.509C1.4135 13.4188 1.31428 13.3022 1.24456 13.168C1.17485 13.0339 1.13646 12.8857 1.13228 12.7345L1.00028 7.97653C0.996257 7.83358 1.02294 7.69143 1.07854 7.55968C1.13413 7.42792 1.21733 7.30962 1.32254 7.21275C1.42774 7.11589 1.5525 7.04272 1.68839 6.99817C1.82428 6.95362 1.96814 6.93874 2.11028 6.95453L4.10528 7.17653C4.32528 7.20103 4.54778 7.20103 4.76828 7.17653L6.69828 6.96153C6.84277 6.94546 6.98903 6.96108 7.12687 7.00731C7.26471 7.05355 7.39081 7.12928 7.49638 7.22924C7.60195 7.3292 7.68446 7.45097 7.73815 7.58608C7.79185 7.72118 7.81544 7.86637 7.80728 8.01153L7.54328 12.7625C7.5293 13.0135 7.4213 13.2501 7.24078 13.425C7.1446 13.5183 7.06814 13.6298 7.01591 13.7532C6.96369 13.8765 6.93678 14.0091 6.93678 14.143V18.707C6.93678 18.8396 6.8841 18.9668 6.79033 19.0606C6.69656 19.1544 6.56938 19.207 6.43678 19.207H6.39328C6.26845 19.207 6.14814 19.1604 6.05599 19.0762C5.96384 18.992 5.90651 18.8763 5.89528 18.752L5.51928 14.6165C5.49681 14.3679 5.38215 14.1367 5.19785 13.9683C5.01355 13.7999 4.77292 13.7065 4.52328 13.7065H4.34978C4.10013 13.7065 3.85951 13.7999 3.6752 13.9683C3.4909 14.1367 3.37624 14.3679 3.35378 14.6165L2.97778 18.752C2.96655 18.8763 2.90929 18.9918 2.81725 19.076C2.7252 19.1602 2.60501 19.2069 2.48028 19.207H2.43678C2.30417 19.207 2.17699 19.1544 2.08322 19.0606C1.98945 18.9668 1.93678 18.8396 1.93678 18.707V14.3105Z" fill="white"/>
</svg>
