<svg width="13" height="15" viewBox="0 0 13 15" fill="none" xmlns="http://www.w3.org/2000/svg">
<path d="M2.2845 2.24284C3.39371 1.15582 4.88709 0.550459 6.44011 0.558303C7.99314 0.566147 9.48032 1.18656 10.5785 2.28473C11.6767 3.3829 12.2971 4.87009 12.3049 6.42311C12.3128 7.97614 11.7074 9.46951 10.6204 10.5787L7.50485 13.6943C7.2257 13.9733 6.84715 14.1301 6.45244 14.1301C6.05773 14.1301 5.67918 13.9733 5.40004 13.6943L2.2845 10.5787C1.17917 9.47327 0.558212 7.97404 0.558212 6.41078C0.558212 4.84753 1.17917 3.34829 2.2845 2.24284Z" stroke="white" stroke-width="1.11641" stroke-linejoin="round"/>
<path d="M6.45038 8.6435C7.68354 8.6435 8.68321 7.64384 8.68321 6.41068C8.68321 5.17753 7.68354 4.17786 6.45038 4.17786C5.21723 4.17786 4.21756 5.17753 4.21756 6.41068C4.21756 7.64384 5.21723 8.6435 6.45038 8.6435Z" stroke="white" stroke-width="1.11641" stroke-linecap="round" stroke-linejoin="round"/>
</svg>
