<svg width="24" height="24" viewBox="0 0 24 24" fill="none" xmlns="http://www.w3.org/2000/svg">
<path fill-rule="evenodd" clip-rule="evenodd" d="M12 8.25C11.0054 8.25 10.0516 8.64509 9.34835 9.34835C8.64509 10.0516 8.25 11.0054 8.25 12C8.25 12.9946 8.64509 13.9484 9.34835 14.6517C10.0516 15.3549 11.0054 15.75 12 15.75C12.9946 15.75 13.9484 15.3549 14.6517 14.6517C15.3549 13.9484 15.75 12.9946 15.75 12C15.75 11.0054 15.3549 10.0516 14.6517 9.34835C13.9484 8.64509 12.9946 8.25 12 8.25ZM9.75 12C9.75 11.4033 9.98705 10.831 10.409 10.409C10.831 9.98705 11.4033 9.75 12 9.75C12.5967 9.75 13.169 9.98705 13.591 10.409C14.0129 10.831 14.25 11.4033 14.25 12C14.25 12.5967 14.0129 13.169 13.591 13.591C13.169 14.0129 12.5967 14.25 12 14.25C11.4033 14.25 10.831 14.0129 10.409 13.591C9.98705 13.169 9.75 12.5967 9.75 12Z" fill="white"/>
<path fill-rule="evenodd" clip-rule="evenodd" d="M11.975 1.25C11.53 1.25 11.159 1.25 10.855 1.27C10.5442 1.28252 10.2377 1.34673 9.94799 1.46C9.61424 1.59809 9.31096 1.80057 9.05548 2.05589C8.79999 2.3112 8.5973 2.61434 8.45899 2.948C8.31399 3.298 8.27499 3.668 8.25899 4.07C8.2572 4.21698 8.2182 4.36112 8.14563 4.48895C8.07306 4.61678 7.96928 4.72414 7.84399 4.801C7.71481 4.87132 7.56992 4.90775 7.42284 4.90687C7.27577 4.906 7.13132 4.86785 7.00299 4.796C6.64699 4.608 6.30699 4.457 5.93099 4.407C5.57293 4.3599 5.20911 4.38379 4.86028 4.4773C4.51146 4.57081 4.18447 4.73212 3.89799 4.952C3.65538 5.14648 3.44686 5.38001 3.28099 5.643C3.11099 5.897 2.92499 6.218 2.70299 6.603L2.67799 6.647C2.45499 7.032 2.26999 7.353 2.13599 7.627C1.99599 7.913 1.88599 8.195 1.84599 8.507C1.75059 9.22999 1.94627 9.96127 2.38999 10.54C2.62099 10.841 2.92199 11.06 3.26199 11.274C3.38862 11.3491 3.49413 11.4551 3.56864 11.582C3.64314 11.709 3.68421 11.8528 3.68799 12C3.68421 12.1472 3.64314 12.291 3.56864 12.418C3.49413 12.5449 3.38862 12.6509 3.26199 12.726C2.92199 12.94 2.62199 13.159 2.38999 13.46C2.17011 13.7465 2.0088 14.0735 1.91529 14.4223C1.82178 14.7711 1.79789 15.1349 1.84499 15.493C1.88599 15.805 1.99499 16.087 2.13499 16.373C2.26999 16.647 2.45499 16.968 2.67799 17.353L2.70299 17.397C2.92499 17.782 3.11099 18.103 3.28099 18.357C3.45799 18.62 3.64799 18.857 3.89799 19.047C4.1844 19.2671 4.51135 19.4285 4.86018 19.5222C5.209 19.6159 5.57287 19.64 5.93099 19.593C6.30699 19.543 6.64699 19.393 7.00299 19.204C7.1312 19.1323 7.27547 19.0943 7.42235 19.0934C7.56923 19.0925 7.71394 19.1289 7.84299 19.199C7.9693 19.2749 8.07399 19.382 8.14701 19.51C8.22003 19.638 8.25894 19.7826 8.25999 19.93C8.27499 20.332 8.31399 20.702 8.45999 21.052C8.59808 21.3857 8.80056 21.689 9.05588 21.9445C9.31119 22.2 9.61433 22.4027 9.94799 22.541C10.238 22.661 10.538 22.708 10.855 22.729C11.159 22.75 11.53 22.75 11.975 22.75H12.025C12.47 22.75 12.841 22.75 13.145 22.73C13.463 22.708 13.762 22.661 14.052 22.54C14.3857 22.4019 14.689 22.1994 14.9445 21.9441C15.2 21.6888 15.4027 21.3857 15.541 21.052C15.686 20.702 15.725 20.332 15.741 19.93C15.7426 19.7828 15.7815 19.6385 15.8541 19.5105C15.9267 19.3825 16.0306 19.275 16.156 19.198C16.2852 19.1278 16.4302 19.0916 16.5773 19.0926C16.7243 19.0937 16.8687 19.132 16.997 19.204C17.353 19.392 17.693 19.543 18.069 19.592C18.792 19.6874 19.5233 19.4917 20.102 19.048C20.352 18.856 20.542 18.62 20.719 18.357C20.889 18.103 21.075 17.782 21.297 17.397L21.322 17.353C21.545 16.968 21.73 16.647 21.864 16.373C22.004 16.087 22.114 15.804 22.154 15.493C22.2494 14.77 22.0537 14.0387 21.61 13.46C21.379 13.159 21.078 12.94 20.738 12.726C20.6114 12.6509 20.5058 12.5449 20.4313 12.418C20.3568 12.291 20.3158 12.1472 20.312 12C20.312 11.722 20.464 11.446 20.738 11.274C21.078 11.06 21.378 10.841 21.61 10.54C21.8299 10.2535 21.9912 9.92653 22.0847 9.5777C22.1782 9.22888 22.2021 8.86506 22.155 8.507C22.1079 8.1996 22.0099 7.90219 21.865 7.627C21.6942 7.29478 21.5131 6.96795 21.322 6.647L21.297 6.603C21.1143 6.27708 20.9216 5.95692 20.719 5.643C20.553 5.38036 20.3445 5.14718 20.102 4.953C19.8156 4.73294 19.4886 4.57146 19.1398 4.47778C18.791 4.38409 18.4271 4.36004 18.069 4.407C17.693 4.457 17.353 4.607 16.997 4.796C16.8688 4.86767 16.7245 4.90572 16.5776 4.9066C16.4308 4.90747 16.286 4.87114 16.157 4.801C16.0313 4.72438 15.9271 4.61712 15.8542 4.48928C15.7813 4.36143 15.742 4.21717 15.74 4.07C15.725 3.668 15.686 3.298 15.54 2.948C15.4019 2.61425 15.1994 2.31097 14.9441 2.05549C14.6888 1.8 14.3856 1.59731 14.052 1.459C13.762 1.339 13.462 1.292 13.145 1.271C12.841 1.25 12.47 1.25 12.025 1.25H11.975ZM10.522 2.845C10.599 2.813 10.716 2.784 10.957 2.767C11.204 2.75 11.524 2.75 12 2.75C12.476 2.75 12.796 2.75 13.043 2.767C13.284 2.784 13.401 2.813 13.478 2.845C13.785 2.972 14.028 3.215 14.155 3.522C14.195 3.618 14.228 3.769 14.241 4.126C14.271 4.918 14.68 5.681 15.406 6.1C16.132 6.519 16.997 6.492 17.698 6.122C18.014 5.955 18.161 5.908 18.265 5.895C18.5936 5.85158 18.9259 5.94043 19.189 6.142C19.255 6.193 19.339 6.28 19.474 6.48C19.613 6.686 19.773 6.963 20.011 7.375C20.249 7.787 20.408 8.065 20.517 8.287C20.624 8.504 20.657 8.62 20.667 8.703C20.7104 9.03157 20.6216 9.36392 20.42 9.627C20.356 9.71 20.242 9.814 19.94 10.004C19.268 10.426 18.812 11.162 18.812 12C18.812 12.838 19.268 13.574 19.94 13.996C20.242 14.186 20.356 14.29 20.42 14.373C20.622 14.636 20.71 14.968 20.667 15.297C20.657 15.38 20.623 15.497 20.517 15.713C20.408 15.936 20.249 16.213 20.011 16.625C19.773 17.037 19.612 17.314 19.474 17.52C19.339 17.72 19.255 17.807 19.189 17.858C18.9259 18.0596 18.5936 18.1484 18.265 18.105C18.161 18.092 18.015 18.045 17.698 17.878C16.998 17.508 16.132 17.48 15.406 17.899C14.68 18.318 14.271 19.082 14.241 19.874C14.228 20.231 14.195 20.382 14.155 20.478C14.0922 20.6298 14 20.7677 13.8839 20.8839C13.7677 21.0001 13.6298 21.0922 13.478 21.155C13.401 21.187 13.284 21.216 13.043 21.233C12.796 21.25 12.476 21.25 12 21.25C11.524 21.25 11.204 21.25 10.957 21.233C10.716 21.216 10.599 21.187 10.522 21.155C10.3702 21.0922 10.2323 21.0001 10.1161 20.8839C9.99994 20.7677 9.90781 20.6298 9.84499 20.478C9.80499 20.382 9.77199 20.231 9.75899 19.874C9.72899 19.082 9.31999 18.319 8.59399 17.9C7.86799 17.481 7.00299 17.508 6.30199 17.878C5.98599 18.045 5.83899 18.092 5.73499 18.105C5.40642 18.1484 5.07406 18.0596 4.81099 17.858C4.74499 17.807 4.66099 17.72 4.52599 17.52C4.33787 17.2272 4.15879 16.9288 3.98899 16.625C3.75099 16.213 3.59199 15.935 3.48299 15.713C3.37599 15.496 3.34299 15.38 3.33299 15.297C3.28957 14.9684 3.37842 14.6361 3.57999 14.373C3.64399 14.29 3.75799 14.186 4.05999 13.996C4.73199 13.574 5.18799 12.838 5.18799 12C5.18799 11.162 4.73199 10.426 4.05999 10.004C3.75799 9.814 3.64399 9.71 3.57999 9.627C3.37842 9.36392 3.28957 9.03157 3.33299 8.703C3.34299 8.62 3.37699 8.503 3.48299 8.287C3.59199 8.064 3.75099 7.787 3.98899 7.375C4.22699 6.963 4.38799 6.686 4.52599 6.48C4.66099 6.28 4.74499 6.193 4.81099 6.142C5.07406 5.94043 5.40642 5.85158 5.73499 5.895C5.83899 5.908 5.98499 5.955 6.30199 6.122C7.00199 6.492 7.86799 6.52 8.59399 6.1C9.31999 5.681 9.72899 4.918 9.75899 4.126C9.77199 3.769 9.80499 3.618 9.84499 3.522C9.97199 3.215 10.215 2.972 10.522 2.845Z" fill="white"/>
</svg>
